Coordinates
version=1
nRows=9
nColumns=36
inDegrees=yes

Units are S.I. units (second, meters, Newtons, ...)
If the header above contains a line with 'inDegrees', this indicates whether rotational values are in degrees (yes) or radians (no).

endheader
time	pelvis_tilt	pelvis_list	pelvis_rotation	pelvis_tx	pelvis_ty	pelvis_tz	hip_flexion_r	hip_adduction_r	hip_rotation_r	knee_angle_r	knee_angle_r_beta	ankle_angle_r	subtalar_angle_r	mtp_angle_r	hip_flexion_l	hip_adduction_l	hip_rotation_l	knee_angle_l	knee_angle_l_beta	ankle_angle_l	subtalar_angle_l	mtp_angle_l	lumbar_extension	lumbar_bending	lumbar_rotation	arm_flex_r	arm_add_r	arm_rot_r	elbow_flex_r	pro_sup_r	arm_flex_l	arm_add_l	arm_rot_l	elbow_flex_l	pro_sup_l
      0.00000000	      0.10692154	      0.13457186	    -13.88456903	     -0.05894712	      1.30127618	     -0.09265070	     -5.77279679	      0.30568492	      2.22823951	      2.61626572	      0.04566245	      5.68471724	     -3.40872997	     -6.32534645	     -3.68602707	      1.22578525	      4.15191707	      3.53490390	      0.06169571	      6.29560368	     -6.26180121	     -6.32534645	     -0.76434017	     -0.45171297	      2.04228147	     -3.72543020	    -12.80823975	      3.29222885	     22.01492171	     88.62210334	      2.94455980	    -12.27631659	     15.20040499	     16.11600505	     84.43087630
      0.01666670	     -0.30458324	      0.19621877	    -13.81662128	     -0.06833190	      1.30112517	     -0.09875475	     -5.45474778	      0.24917676	      2.73388776	      1.93779006	      0.03382082	      8.04475001	     -1.84915663	     -6.36995216	     -3.08451018	      1.35314788	      3.03837735	      3.28307729	      0.05730051	      6.93313746	     -5.33682707	     -6.36995216	     -1.10406316	     -0.45554946	      2.18271441	     -3.20890534	    -13.28821921	      3.73504810	     21.71831924	     89.32677605	      3.89062927	    -11.97874332	     14.91560767	     15.22793605	     84.79435698
      0.03333330	     -0.37397525	      0.04475299	    -13.90375780	     -0.06110953	      1.30152377	     -0.09405676	     -5.71765798	      0.61958059	      2.85856416	      1.70773446	      0.02980559	      8.46027280	     -1.89599548	     -6.46381366	     -3.84375279	      1.31158239	      3.07857062	      2.42662092	      0.04235252	      7.15287204	     -4.90779868	     -6.46381366	     -1.04523192	     -0.26272223	      2.18715708	     -2.86268959	    -13.74234459	      5.79408975	     20.70508778	     91.71646102	      4.51651441	    -11.69050461	     14.76536404	     13.99264973	     86.38398637
      0.05000000	     -0.60848653	      0.13936821	    -13.87955016	     -0.06197988	      1.30055644	     -0.09448136	     -5.53689352	      0.65614592	      2.69360977	      1.74539961	      0.03046297	      8.63845343	     -2.13341460	     -6.71809261	     -3.88921052	      1.51031264	      2.65548776	      2.17519558	      0.03796432	      7.19803431	     -4.58466042	     -6.71809261	     -0.70718259	     -0.27971633	      1.84839565	     -2.19416435	    -14.04634872	      7.75480499	     19.81170759	     96.09975609	      4.20706159	    -11.71034604	     13.79172611	     13.77816020	     90.83348301
      0.06666670	     -0.57546242	      0.31404225	    -14.13840873	     -0.06235729	      1.30033155	     -0.09454049	     -5.55817301	      0.50365514	      3.29943053	      1.89904572	      0.03314460	      9.15008162	     -2.65107134	     -7.04192174	     -4.02826504	      1.79337309	      2.28510678	      2.12080442	      0.03701502	      7.32163381	     -4.44246802	     -7.04192174	     -0.50330393	     -0.43038564	      1.87357041	     -1.73218176	    -13.86684194	      7.05083959	     19.00189430	     99.33927864	      4.14883486	    -11.45199515	     10.96930688	     13.12755000	     95.81701512
      0.08333330	     -0.58555184	      0.54325810	    -14.37561571	     -0.06277635	      1.30030061	     -0.09436158	     -5.47148386	      0.29134710	      3.82865427	      2.13802738	      0.03731562	      9.49631107	     -3.16324266	     -7.17621066	     -3.90260947	      2.06312997	      1.88281496	      2.26375952	      0.03951006	      7.50882749	     -3.91317243	     -7.17621066	     -0.30582349	     -0.61642708	      1.91270876	     -1.29369221	    -13.91940176	      8.99870813	     18.27418152	     99.02464789	      4.15543334	    -11.55779390	     12.11985505	     12.54284715	     96.03483008
      0.10000000	     -0.69123974	      0.82537857	    -14.42142583	     -0.06267854	      1.30003028	     -0.09412270	     -5.24085207	      0.05673929	      4.24047019	      2.34227129	      0.04088035	      9.82285554	     -3.54319436	     -7.32856088	     -3.59496166	      2.30537533	      1.80411396	      2.46109208	      0.04295416	      7.57347721	     -3.73392717	     -7.32856088	     -0.11876638	     -0.88400648	      1.94517420	     -1.19618274	    -13.69301677	      8.34755175	     17.92566399	    101.47219743	      4.03930394	    -11.62004337	     10.66830167	     12.43468681	     99.70229571
      0.11666670	     -0.71596430	      1.06341533	    -14.54910110	     -0.06313833	      1.30012605	     -0.09398268	     -5.09527907	     -0.17513120	      4.50667233	      2.49759853	      0.04359132	      9.92036226	     -3.97940077	     -7.36202812	     -3.49588068	      2.52027298	      1.62613419	      2.45977599	      0.04293119	      7.41395687	     -3.54839071	     -7.36202812	      0.00721767	     -1.11891714	      1.90842200	     -0.85280347	    -13.57401865	      9.50836537	     17.29763410	    100.36597300	      4.06354160	    -11.75439071	     11.61131629	     11.88208745	     98.73754123
      0.13333330	     -0.69622629	      1.23032549	    -14.60093420	     -0.06304815	      1.30338899	     -0.09368747	     -5.06241770	     -0.33323574	      4.70490308	      2.57892452	      0.04501072	      9.99961141	     -4.20721485	     -7.41261342	     -3.45412827	      2.64121210	      1.38630393	      2.41801466	      0.04220232	      7.41466117	     -3.10891023	     -7.41261342	     -0.01646830	     -1.33177942	      1.70863427	     -0.56643253	    -13.62308986	     11.43784945	     17.07696527	    101.03901132	      4.14777259	    -12.10903902	     13.76537326	     11.69289724	     99.70512648
